# Blender v3.0.0 OBJ File: 'planeWithCurve.blend'
# www.blender.org
mtllib BackNew5.mtl
o Plane
v -1.000000 0.000000 1.000000
v 1.000000 0.000000 1.000000
v -1.000000 0.000000 -1.000000
v 1.000000 0.000000 -1.000000
v -1.000000 0.000000 0.004507
v 1.000000 0.000000 -0.001276
v -1.000000 0.000000 0.516419
v 1.000000 0.000000 0.497006
v -1.000000 0.000000 -0.515215
v 1.000000 0.000000 -0.492402
v -1.000000 0.000000 -0.766211
v 1.000000 0.000000 -0.745747
v 1.000000 0.000000 -0.253088
v -1.000000 0.000000 -0.255221
v -1.000000 0.000000 0.254223
v 1.000000 0.000000 0.244342
v 1.000000 0.000000 0.740149
v -1.000000 0.000000 0.756295
v -1.000000 0.002263 -1.189403
v 1.000000 0.002263 -1.189403
v -1.000000 0.010721 -1.378630
v 1.000000 0.010721 -1.378630
v -1.000000 0.025366 -1.567479
v 1.000000 0.025366 -1.567479
v -1.000000 0.046182 -1.755747
v 1.000000 0.046182 -1.755747
v -1.000000 0.073148 -1.943234
v 1.000000 0.073148 -1.943234
v -1.000000 0.106233 -2.129738
v 1.000000 0.106233 -2.129738
v -1.000000 0.145402 -2.315060
v 1.000000 0.145402 -2.315060
v -1.000000 0.190615 -2.499001
v 1.000000 0.190615 -2.499001
v -1.000000 0.241821 -2.681364
v 1.000000 0.241821 -2.681364
v -1.000000 0.298967 -2.861954
v 1.000000 0.298967 -2.861954
v -1.000000 0.361991 -3.040578
v 1.000000 0.361991 -3.040578
v -1.000000 0.430825 -3.217044
v 1.000000 0.430825 -3.217044
v -1.000000 0.505397 -3.391163
v 1.000000 0.505397 -3.391163
v -1.000000 0.585625 -3.562749
v 1.000000 0.585625 -3.562749
v -1.000000 0.671425 -3.731618
v 1.000000 0.671425 -3.731618
v -1.000000 0.762704 -3.897590
v 1.000000 0.762704 -3.897590
v -1.000000 0.859365 -4.060486
v 1.000000 0.859365 -4.060486
v -1.000000 0.961304 -4.220132
v 1.000000 0.961304 -4.220132
v -1.000000 1.068411 -4.376358
v 1.000000 1.068411 -4.376358
v -1.000000 1.180573 -4.528995
v 1.000000 1.180573 -4.528995
v -1.000000 1.297669 -4.677881
v 1.000000 1.297669 -4.677881
v -1.000000 1.419573 -4.822856
v 1.000000 1.419573 -4.822856
v -1.000000 1.546156 -4.963765
v 1.000000 1.546156 -4.963765
v -1.000000 1.677281 -5.100456
v 1.000000 1.677281 -5.100456
v -1.000000 1.812809 -5.232784
v 1.000000 1.812809 -5.232784
v -1.000000 1.952594 -5.360607
v 1.000000 1.952594 -5.360607
v -1.000000 2.096486 -5.483788
v 1.000000 2.096486 -5.483788
v -1.000000 2.244331 -5.602195
v 1.000000 2.244331 -5.602195
v -1.000000 2.395972 -5.715701
v 1.000000 2.395972 -5.715701
v -1.000000 2.551245 -5.824184
v 1.000000 2.551245 -5.824184
v -1.000000 2.709984 -5.927530
v 1.000000 2.709984 -5.927530
v -1.000000 2.872020 -6.025626
v 1.000000 2.872020 -6.025626
v -1.000000 3.037179 -6.118368
v 1.000000 3.037179 -6.118368
v -1.000000 3.205283 -6.205656
v 1.000000 3.205283 -6.205656
v -1.000000 3.376154 -6.287397
v 1.000000 3.376154 -6.287397
v -1.000000 3.549608 -6.363504
v 1.000000 3.549608 -6.363504
v -1.000000 3.725458 -6.433896
v 1.000000 3.725458 -6.433896
v -1.000000 3.903518 -6.498496
v 1.000000 3.903518 -6.498496
v -1.000000 4.083597 -6.557235
v 1.000000 4.083597 -6.557235
v -1.000000 4.265501 -6.610050
v 1.000000 4.265501 -6.610050
v -1.000000 4.449035 -6.656886
v 1.000000 4.449035 -6.656886
v -1.000000 4.634003 -6.697691
v 1.000000 4.634003 -6.697691
v -1.000000 4.820208 -6.732423
v 1.000000 4.820208 -6.732423
v -1.000000 5.007450 -6.761043
v 1.000000 5.007450 -6.761043
v -1.000000 5.195527 -6.783522
v 1.000000 5.195527 -6.783522
v -1.000000 5.384239 -6.799835
v 1.000000 5.384239 -6.799835
v -1.000000 5.573384 -6.809965
v 1.000000 5.573384 -6.809965
v -1.000000 5.762760 -6.813900
v 1.000000 5.762760 -6.813900
v -1.000000 6.023532 -6.813900
v 1.000000 6.023532 -6.813900
v -1.000000 6.365452 -6.813900
v 1.000000 6.365452 -6.813900
v -1.000000 6.814076 -6.813900
v 1.000000 6.814076 -6.813900
v -1.000000 7.278543 -6.813900
v 1.000000 7.278543 -6.813900
v -1.000000 7.757898 -6.813900
v 1.000000 7.757898 -6.813900
vt 0.000000 0.000000
vt 1.000000 0.000000
vt 1.000000 0.129925
vt 0.000000 0.121853
vt 0.000000 0.497746
vt 1.000000 0.500638
vt 1.000000 0.626544
vt 0.000000 0.627610
vt 0.000000 0.241790
vt 1.000000 0.251497
vt 1.000000 0.377829
vt 0.000000 0.372888
vt 0.000000 0.757607
vt 1.000000 0.746201
vt 1.000000 0.872873
vt 0.000000 0.883105
vt 1.000000 1.000000
vt 0.000000 1.000000
vt 1.000000 1.000000
vt 0.000000 1.000000
vt 1.000000 1.000000
vt 0.000000 1.000000
vt 1.000000 1.000000
vt 0.000000 1.000000
vt 1.000000 1.000000
vt 0.000000 1.000000
vt 1.000000 1.000000
vt 0.000000 1.000000
vt 1.000000 1.000000
vt 0.000000 1.000000
vt 1.000000 1.000000
vt 0.000000 1.000000
vt 1.000000 1.000000
vt 0.000000 1.000000
vt 1.000000 1.000000
vt 0.000000 1.000000
vt 1.000000 1.000000
vt 0.000000 1.000000
vt 1.000000 1.000000
vt 0.000000 1.000000
vt 1.000000 1.000000
vt 0.000000 1.000000
vt 1.000000 1.000000
vt 0.000000 1.000000
vt 1.000000 1.000000
vt 0.000000 1.000000
vt 1.000000 1.000000
vt 0.000000 1.000000
vt 1.000000 1.000000
vt 0.000000 1.000000
vt 1.000000 1.000000
vt 0.000000 1.000000
vt 1.000000 1.000000
vt 0.000000 1.000000
vt 1.000000 1.000000
vt 0.000000 1.000000
vt 1.000000 1.000000
vt 0.000000 1.000000
vt 1.000000 1.000000
vt 0.000000 1.000000
vt 1.000000 1.000000
vt 0.000000 1.000000
vt 1.000000 1.000000
vt 0.000000 1.000000
vt 1.000000 1.000000
vt 0.000000 1.000000
vt 1.000000 1.000000
vt 0.000000 1.000000
vt 1.000000 1.000000
vt 0.000000 1.000000
vt 1.000000 1.000000
vt 0.000000 1.000000
vt 1.000000 1.000000
vt 0.000000 1.000000
vt 1.000000 1.000000
vt 0.000000 1.000000
vt 1.000000 1.000000
vt 0.000000 1.000000
vt 1.000000 1.000000
vt 0.000000 1.000000
vt 1.000000 1.000000
vt 0.000000 1.000000
vt 1.000000 1.000000
vt 0.000000 1.000000
vt 1.000000 1.000000
vt 0.000000 1.000000
vt 1.000000 1.000000
vt 0.000000 1.000000
vt 1.000000 1.000000
vt 0.000000 1.000000
vt 1.000000 1.000000
vt 0.000000 1.000000
vt 1.000000 1.000000
vt 0.000000 1.000000
vt 1.000000 1.000000
vt 0.000000 1.000000
vt 1.000000 1.000000
vt 0.000000 1.000000
vt 1.000000 1.000000
vt 0.000000 1.000000
vt 1.000000 1.000000
vt 0.000000 1.000000
vt 1.000000 1.000000
vt 0.000000 1.000000
vt 1.000000 1.000000
vt 0.000000 1.000000
vt 1.000000 1.000000
vt 0.000000 1.000000
vt 1.000000 1.000000
vt 0.000000 1.000000
vt 1.000000 1.000000
vt 0.000000 1.000000
vt 1.000000 1.000000
vt 0.000000 1.000000
vt 1.000000 1.000000
vt 0.000000 1.000000
vt 1.000000 1.000000
vt 0.000000 1.000000
vt 1.000000 1.000000
vt 0.000000 1.000000
vt 1.000000 1.000000
vt 0.000000 1.000000
vt 1.000000 1.000000
vt 0.000000 1.000000
vn 0.0000 1.0000 0.0000
vn 0.0000 0.9999 0.0119
vn 0.0000 0.9990 0.0447
vn 0.0000 0.9970 0.0773
vn 0.0000 0.9939 0.1099
vn 0.0000 0.9898 0.1424
vn 0.0000 0.9846 0.1747
vn 0.0000 0.9784 0.2068
vn 0.0000 0.9711 0.2387
vn 0.0000 0.9628 0.2703
vn 0.0000 0.9534 0.3017
vn 0.0000 0.9430 0.3327
vn 0.0000 0.9316 0.3634
vn 0.0000 0.9192 0.3937
vn 0.0000 0.9059 0.4236
vn 0.0000 0.8915 0.4530
vn 0.0000 0.8762 0.4819
vn 0.0000 0.8600 0.5103
vn 0.0000 0.8428 0.5382
vn 0.0000 0.8248 0.5655
vn 0.0000 0.8058 0.5921
vn 0.0000 0.7860 0.6182
vn 0.0000 0.7654 0.6436
vn 0.0000 0.7439 0.6683
vn 0.0000 0.7216 0.6923
vn 0.0000 0.6986 0.7155
vn 0.0000 0.6748 0.7380
vn 0.0000 0.6503 0.7597
vn 0.0000 0.6251 0.7805
vn 0.0000 0.5992 0.8006
vn 0.0000 0.5727 0.8197
vn 0.0000 0.5456 0.8380
vn 0.0000 0.5179 0.8554
vn 0.0000 0.4896 0.8719
vn 0.0000 0.4608 0.8875
vn 0.0000 0.4315 0.9021
vn 0.0000 0.4018 0.9157
vn 0.0000 0.3716 0.9284
vn 0.0000 0.3410 0.9400
vn 0.0000 0.3101 0.9507
vn 0.0000 0.2788 0.9603
vn 0.0000 0.2473 0.9689
vn 0.0000 0.2154 0.9765
vn 0.0000 0.1834 0.9830
vn 0.0000 0.1511 0.9885
vn 0.0000 0.1187 0.9929
vn 0.0000 0.0861 0.9963
vn 0.0000 0.0535 0.9986
vn 0.0000 0.0208 0.9998
vn 0.0000 0.0000 1.0000
usemtl None
s off
f 1/1/1 2/2/1 17/3/1 18/4/1
f 5/5/1 6/6/1 13/7/1 14/8/1
f 7/9/1 8/10/1 16/11/1 15/12/1
f 9/13/1 10/14/1 12/15/1 11/16/1
f 11/16/1 12/15/1 4/17/1 3/18/1
f 14/8/1 13/7/1 10/14/1 9/13/1
f 15/12/1 16/11/1 6/6/1 5/5/1
f 18/4/1 17/3/1 8/10/1 7/9/1
f 3/18/2 4/17/2 20/19/2 19/20/2
f 19/20/3 20/19/3 22/21/3 21/22/3
f 21/22/4 22/21/4 24/23/4 23/24/4
f 23/24/5 24/23/5 26/25/5 25/26/5
f 25/26/6 26/25/6 28/27/6 27/28/6
f 27/28/7 28/27/7 30/29/7 29/30/7
f 29/30/8 30/29/8 32/31/8 31/32/8
f 31/32/9 32/31/9 34/33/9 33/34/9
f 33/34/10 34/33/10 36/35/10 35/36/10
f 35/36/11 36/35/11 38/37/11 37/38/11
f 37/38/12 38/37/12 40/39/12 39/40/12
f 39/40/13 40/39/13 42/41/13 41/42/13
f 41/42/14 42/41/14 44/43/14 43/44/14
f 43/44/15 44/43/15 46/45/15 45/46/15
f 45/46/16 46/45/16 48/47/16 47/48/16
f 47/48/17 48/47/17 50/49/17 49/50/17
f 49/50/18 50/49/18 52/51/18 51/52/18
f 51/52/19 52/51/19 54/53/19 53/54/19
f 53/54/20 54/53/20 56/55/20 55/56/20
f 55/56/21 56/55/21 58/57/21 57/58/21
f 57/58/22 58/57/22 60/59/22 59/60/22
f 59/60/23 60/59/23 62/61/23 61/62/23
f 61/62/24 62/61/24 64/63/24 63/64/24
f 63/64/25 64/63/25 66/65/25 65/66/25
f 65/66/26 66/65/26 68/67/26 67/68/26
f 67/68/27 68/67/27 70/69/27 69/70/27
f 69/70/28 70/69/28 72/71/28 71/72/28
f 71/72/29 72/71/29 74/73/29 73/74/29
f 73/74/30 74/73/30 76/75/30 75/76/30
f 75/76/31 76/75/31 78/77/31 77/78/31
f 77/78/32 78/77/32 80/79/32 79/80/32
f 79/80/33 80/79/33 82/81/33 81/82/33
f 81/82/34 82/81/34 84/83/34 83/84/34
f 83/84/35 84/83/35 86/85/35 85/86/35
f 85/86/36 86/85/36 88/87/36 87/88/36
f 87/88/37 88/87/37 90/89/37 89/90/37
f 89/90/38 90/89/38 92/91/38 91/92/38
f 91/92/39 92/91/39 94/93/39 93/94/39
f 93/94/40 94/93/40 96/95/40 95/96/40
f 95/96/41 96/95/41 98/97/41 97/98/41
f 97/98/42 98/97/42 100/99/42 99/100/42
f 99/100/43 100/99/43 102/101/43 101/102/43
f 101/102/44 102/101/44 104/103/44 103/104/44
f 103/104/45 104/103/45 106/105/45 105/106/45
f 105/106/46 106/105/46 108/107/46 107/108/46
f 107/108/47 108/107/47 110/109/47 109/110/47
f 109/110/48 110/109/48 112/111/48 111/112/48
f 111/112/49 112/111/49 114/113/49 113/114/49
f 113/114/50 114/113/50 116/115/50 115/116/50
f 115/116/50 116/115/50 118/117/50 117/118/50
f 117/118/50 118/117/50 120/119/50 119/120/50
f 119/120/50 120/119/50 122/121/50 121/122/50
f 121/122/50 122/121/50 124/123/50 123/124/50
